<svg width="25" height="24" viewBox="0 0 25 24" fill="none" xmlns="http://www.w3.org/2000/svg">
<path d="M10.3797 18.1901V18.6703C10.3797 19.2891 10.6256 19.8827 11.0632 20.3203C11.5008 20.7579 12.0943 21.0037 12.7132 21.0037H12.7151C13.3342 21.004 13.9281 20.7583 14.366 20.3207C14.804 19.8831 15.0502 19.2894 15.0504 18.6703V18.1901" stroke="#FFE1C5" stroke-width="1.5" stroke-linecap="round" stroke-linejoin="round"/>
<path fill-rule="evenodd" clip-rule="evenodd" d="M18.2927 18.1901C19.3561 18.1901 20.2182 17.328 20.2182 16.2646V16.2646C20.2178 15.7244 20.0033 15.2064 19.6217 14.824L18.3424 13.5456V9.74905C18.3424 6.64115 15.823 4.1217 12.7151 4.1217V4.1217C9.60717 4.1217 7.08773 6.64115 7.08773 9.74905V13.5456L5.80844 14.824C5.42687 15.2064 5.21238 15.7244 5.21194 16.2646V16.2646C5.21194 17.328 6.07402 18.1901 7.13744 18.1901H18.2927V18.1901Z" stroke="#FFE1C5" stroke-width="1.5" stroke-linecap="round" stroke-linejoin="round"/>
<path d="M22.7405 2.99625L20.7397 4.33011" stroke="#FFE1C5" stroke-width="1.5" stroke-linecap="round" stroke-linejoin="round"/>
<path d="M23.7197 8.99874H21.7401" stroke="#FFE1C5" stroke-width="1.5" stroke-linecap="round" stroke-linejoin="round"/>
<path d="M2.68961 2.99625L4.69044 4.33011" stroke="#FFE1C5" stroke-width="1.5" stroke-linecap="round" stroke-linejoin="round"/>
<path d="M1.71051 8.99874H3.69003" stroke="#FFE1C5" stroke-width="1.5" stroke-linecap="round" stroke-linejoin="round"/>
</svg>
