<svg width="24" height="24" viewBox="0 0 24 24" fill="none" xmlns="http://www.w3.org/2000/svg">
<path d="M11.8197 8.99974L14.82 12L11.8197 15.0002" stroke="#83909D" stroke-width="1.5" stroke-linecap="round" stroke-linejoin="round"/>
<path d="M14.8284 12L4.18644 12C3.43974 12 2.83375 11.394 2.83375 10.6473V10.6473C2.83375 8.7664 3.57975 6.96115 4.90698 5.62826V5.62826C5.77673 4.75851 6.81476 4.05706 7.96734 3.5734C9.10225 3.09752 10.3468 2.83306 11.6542 2.83377C14.0004 2.83377 16.3466 3.72897 18.1362 5.51865C19.9259 7.30834 20.8211 9.65452 20.8211 12.0007C20.8211 14.3469 19.9266 16.6924 18.1362 18.4827C16.3466 20.2724 14.0004 21.1676 11.6542 21.1676C9.30802 21.1676 6.96254 20.2731 5.17215 18.4827C4.47424 17.7848 3.89794 16.9681 3.45459 16.0751" stroke="#83909D" stroke-width="1.5" stroke-linecap="round" stroke-linejoin="round"/>
</svg>
