<svg width="24" height="24" viewBox="0 0 24 24" fill="none" xmlns="http://www.w3.org/2000/svg">
<path fill-rule="evenodd" clip-rule="evenodd" d="M5.1323 20.6105H18.8039C19.8902 20.6105 20.77 19.746 20.77 18.6788V8.05418C20.77 6.98689 19.8902 6.12244 18.8039 6.12244H5.1323C4.04608 6.12244 3.16629 6.98689 3.16629 8.05418V18.6788C3.16629 19.746 4.04706 20.6105 5.1323 20.6105Z" stroke="#FFE1C5" stroke-width="1.5" stroke-linecap="round" stroke-linejoin="round"/>
<path d="M11.9681 9.02005C10.6106 9.02005 9.5106 10.1009 9.5106 11.4347C9.5106 12.7686 10.6106 13.8494 11.9681 13.8494C13.3256 13.8494 14.4256 12.7686 14.4256 11.4347C14.4256 10.1009 13.3256 9.02005 11.9681 9.02005" stroke="#FFE1C5" stroke-width="1.5" stroke-linecap="round" stroke-linejoin="round"/>
<path d="M7.54461 17.7129C7.67338 17.3951 7.87293 17.1092 8.12851 16.8764V16.8764C8.56005 16.4824 9.12528 16.2641 9.71509 16.2641C10.6981 16.2641 13.2382 16.2641 14.2212 16.2641C14.811 16.2641 15.3752 16.4833 15.8078 16.8764V16.8764C16.0633 17.1092 16.2629 17.3951 16.3917 17.7129" stroke="#FFE1C5" stroke-width="1.5" stroke-linecap="round" stroke-linejoin="round"/>
<path d="M19.0634 6.12244V5.15656C19.0634 4.08928 18.1837 3.22482 17.0974 3.22482H6.83977C5.75355 3.22482 4.87376 4.08928 4.87376 5.15656V6.12244" stroke="#FFE1C5" stroke-width="1.5" stroke-linecap="round" stroke-linejoin="round"/>
</svg>
