<svg width="24" height="25" viewBox="0 0 24 25" fill="none" xmlns="http://www.w3.org/2000/svg">
<path d="M15.6966 7.11201C14.6186 8.23401 12.9216 8.50001 12.0996 8.50001" stroke="#FF8E38" stroke-width="1.5" stroke-linecap="round" stroke-linejoin="round"/>
<path d="M12.0996 8.5C12.0996 8.5 11.6056 5.384 12.8206 4.12" stroke="#FF8E38" stroke-width="1.5" stroke-linecap="round" stroke-linejoin="round"/>
<path d="M15.6966 7.112C16.4906 6.286 16.4906 4.946 15.6966 4.12C14.9026 3.294 13.6156 3.294 12.8216 4.12" stroke="#FF8E38" stroke-width="1.5" stroke-linecap="round" stroke-linejoin="round"/>
<path d="M8.3046 7.11201C9.3826 8.23401 11.0796 8.50001 11.9016 8.50001" stroke="#FF8E38" stroke-width="1.5" stroke-linecap="round" stroke-linejoin="round"/>
<path d="M11.9016 8.5C11.9016 8.5 12.3956 5.384 11.1806 4.12" stroke="#FF8E38" stroke-width="1.5" stroke-linecap="round" stroke-linejoin="round"/>
<path d="M8.30461 7.112C7.51061 6.286 7.51061 4.946 8.30461 4.12C9.09861 3.294 10.3856 3.294 11.1796 4.12" stroke="#FF8E38" stroke-width="1.5" stroke-linecap="round" stroke-linejoin="round"/>
<path d="M19.0006 12.5V20.5C19.0006 21.052 18.5526 21.5 18.0006 21.5H6.00061C5.44861 21.5 5.00061 21.052 5.00061 20.5V12.5" stroke="#242328" stroke-width="1.5" stroke-linecap="round" stroke-linejoin="round"/>
<path fill-rule="evenodd" clip-rule="evenodd" d="M20.0006 8.5H4.00061C3.44861 8.5 3.00061 8.948 3.00061 9.5V11.5C3.00061 12.052 3.44861 12.5 4.00061 12.5H20.0006C20.5526 12.5 21.0006 12.052 21.0006 11.5V9.5C21.0006 8.948 20.5526 8.5 20.0006 8.5Z" stroke="#242328" stroke-width="1.5" stroke-linecap="round" stroke-linejoin="round"/>
<path d="M12.0006 21.5V8.5" stroke="#242328" stroke-width="1.5" stroke-linecap="round" stroke-linejoin="round"/>
</svg>
