<svg width="25" height="24" viewBox="0 0 25 24" fill="none" xmlns="http://www.w3.org/2000/svg">
<path fill-rule="evenodd" clip-rule="evenodd" d="M6.56638 20.6069H18.3575C19.9857 20.6069 21.3053 19.3102 21.3053 17.7105V6.12483C21.3053 4.52505 19.9857 3.22842 18.3575 3.22842H6.56638C4.93822 3.22842 3.6186 4.52505 3.6186 6.12483V17.7105C3.6186 19.3102 4.93822 20.6069 6.56638 20.6069Z" stroke="#FFE1C5" stroke-width="1.5" stroke-linecap="round" stroke-linejoin="round"/>
<path d="M14.4395 7.58517C13.768 8.24498 13.768 9.31476 14.4395 9.97457C15.111 10.6344 16.1998 10.6344 16.8713 9.97457C17.5428 9.31476 17.5428 8.24498 16.8713 7.58517C16.1998 6.92535 15.111 6.92535 14.4395 7.58517" stroke="#FFE1C5" stroke-width="1.5" stroke-linecap="round" stroke-linejoin="round"/>
<path d="M3.61859 10.0919C4.06076 10.0301 4.50981 9.98669 4.96966 9.98669C10.1931 9.98669 14.4272 14.1469 14.4272 19.2793C14.4272 19.7312 14.3829 20.1724 14.3201 20.6068" stroke="#FFE1C5" stroke-width="1.5" stroke-linecap="round" stroke-linejoin="round"/>
</svg>
