<svg width="25" height="25" viewBox="0 0 25 25" fill="none" xmlns="http://www.w3.org/2000/svg">
<path d="M9.68576 18.6901V19.1703C9.68576 19.7892 9.9316 20.3827 10.3692 20.8203C10.8068 21.2579 11.4003 21.5038 12.0192 21.5038H12.0211C12.6402 21.504 13.2341 21.2583 13.6721 20.8207C14.11 20.3831 14.3562 19.7894 14.3564 19.1703V18.6901" stroke="#FF8E38" stroke-width="1.5" stroke-linecap="round" stroke-linejoin="round"/>
<path fill-rule="evenodd" clip-rule="evenodd" d="M17.5987 18.6901C18.6622 18.6901 19.5242 17.828 19.5242 16.7646V16.7646C19.5238 16.2244 19.3093 15.7064 18.9277 15.324L17.6484 14.0456V10.2491C17.6484 7.14117 15.129 4.62172 12.0211 4.62172V4.62172C8.9132 4.62172 6.39376 7.14117 6.39376 10.2491V14.0456L5.11447 15.324C4.7329 15.7064 4.51841 16.2244 4.51797 16.7646V16.7646C4.51797 17.828 5.38005 18.6901 6.44347 18.6901H17.5987V18.6901Z" stroke="#242328" stroke-width="1.5" stroke-linecap="round" stroke-linejoin="round"/>
<path d="M22.0466 3.49625L20.0457 4.83012" stroke="#FF8E38" stroke-width="1.5" stroke-linecap="round" stroke-linejoin="round"/>
<path d="M23.0257 9.49875H21.0462" stroke="#FF8E38" stroke-width="1.5" stroke-linecap="round" stroke-linejoin="round"/>
<path d="M1.99564 3.49625L3.99647 4.83012" stroke="#FF8E38" stroke-width="1.5" stroke-linecap="round" stroke-linejoin="round"/>
<path d="M1.01654 9.49875H2.99607" stroke="#FF8E38" stroke-width="1.5" stroke-linecap="round" stroke-linejoin="round"/>
</svg>
