<svg width="25" height="24" viewBox="0 0 25 24" fill="none" xmlns="http://www.w3.org/2000/svg">
<path d="M20.5758 7.09031V5.15938C20.5758 4.62616 20.1359 4.19391 19.5932 4.19391H5.83686C5.29419 4.19391 4.85426 4.62616 4.85426 5.15938V7.09031" stroke="#FFE1C5" stroke-width="1.5" stroke-linecap="round" stroke-linejoin="round"/>
<path fill-rule="evenodd" clip-rule="evenodd" d="M4.85427 7.0903H20.5758C21.1185 7.0903 21.5584 7.52256 21.5584 8.05577V18.6759C21.5584 19.7424 20.6786 20.6069 19.5932 20.6069H5.83687C4.75152 20.6069 3.87168 19.7424 3.87168 18.6759V8.05577C3.87168 7.52256 4.3116 7.0903 4.85427 7.0903Z" stroke="#FFE1C5" stroke-width="1.5" stroke-linecap="round" stroke-linejoin="round"/>
<path d="M8.78465 10.9522C8.78465 13.085 10.5443 14.8141 12.715 14.8141C14.8857 14.8141 16.6454 13.085 16.6454 10.9522" stroke="#FFE1C5" stroke-width="1.5" stroke-linecap="round" stroke-linejoin="round"/>
</svg>
