<svg width="24" height="25" viewBox="0 0 24 25" fill="none" xmlns="http://www.w3.org/2000/svg">
<path d="M11.0006 15.5H7.00061C4.79147 15.5 3.00061 17.2909 3.00061 19.5V20.5" stroke="#242328" stroke-width="1.5" stroke-linecap="round" stroke-linejoin="round"/>
<circle cx="11.0006" cy="7.50001" r="4" stroke="#242328" stroke-width="1.5" stroke-linecap="round" stroke-linejoin="round"/>
<path fill-rule="evenodd" clip-rule="evenodd" d="M22.1859 11.8699V11.8699C21.7156 11.3996 20.9617 11.3749 20.4613 11.8122L15.6333 16.0365C15.1101 16.4942 15.0837 17.2986 15.5751 17.79L16.2653 18.4802C16.7567 18.9716 17.5616 18.9446 18.0188 18.4219L22.243 13.594C22.6809 13.0942 22.6557 12.3403 22.1859 11.8699V11.8699Z" stroke="#FF8E38" stroke-width="1.5" stroke-linecap="round" stroke-linejoin="round"/>
<path fill-rule="evenodd" clip-rule="evenodd" d="M12.2008 21.5H14.4252C16.2184 21.5 17.1164 19.332 15.8483 18.0639V18.0639C14.916 17.1316 13.3325 17.4746 12.87 18.7091L11.9557 21.1468C11.892 21.318 12.0182 21.5 12.2008 21.5Z" stroke="#FF8E38" stroke-width="1.5" stroke-linecap="round" stroke-linejoin="round"/>
</svg>
