<svg width="24" height="25" viewBox="0 0 24 25" fill="none" xmlns="http://www.w3.org/2000/svg">
<path fill-rule="evenodd" clip-rule="evenodd" d="M9.65362 19.1368L10.1798 20.3203C10.4994 21.04 11.2131 21.5037 12.0006 21.5037V21.5037C12.7881 21.5037 13.5018 21.04 13.8214 20.3203L14.3476 19.1368C14.5349 18.7168 14.85 18.3667 15.248 18.1363V18.1363C15.6484 17.9053 16.1117 17.8069 16.5715 17.8552L17.859 17.9923C18.6421 18.0751 19.4004 17.6889 19.7938 17.0069V17.0069C20.1878 16.3253 20.1431 15.4755 19.6798 14.839L18.9175 13.7915C18.646 13.4158 18.501 12.9635 18.5033 12.5V12.5C18.5032 12.0377 18.6496 11.5873 18.9215 11.2135L19.6838 10.166C20.1471 9.52951 20.1918 8.67974 19.7978 7.99813V7.99813C19.4044 7.31611 18.6461 6.92989 17.863 7.01271L16.5755 7.14977C16.1157 7.19806 15.6524 7.09966 15.252 6.86865V6.86865C14.8532 6.63699 14.538 6.28503 14.3516 5.86324L13.8214 4.67974C13.5018 3.96 12.7881 3.49625 12.0006 3.49625V3.49625C11.2131 3.49625 10.4994 3.96 10.1798 4.67974L9.65362 5.86324C9.46718 6.28503 9.152 6.63699 8.75325 6.86865V6.86865C8.35277 7.09966 7.88949 7.19806 7.42969 7.14977L6.13816 7.01271C5.35514 6.92989 4.59683 7.31611 4.20335 7.99813V7.99813C3.80936 8.67974 3.85407 9.52951 4.3174 10.166L5.07972 11.2135C5.35158 11.5873 5.49797 12.0377 5.49789 12.5V12.5C5.49797 12.9623 5.35158 13.4127 5.07972 13.7865L4.3174 14.834C3.85407 15.4705 3.80936 16.3203 4.20335 17.0019V17.0019C4.59719 17.6835 5.35524 18.0696 6.13816 17.9873L7.42569 17.8502C7.88549 17.8019 8.34877 17.9003 8.74924 18.1313V18.1313C9.14949 18.3624 9.46613 18.7144 9.65362 19.1368V19.1368Z" stroke="#242328" stroke-width="1.5"/>
<circle cx="12.0006" cy="12.5" r="2.6481" stroke="#FF8E38" stroke-width="1.5" stroke-linecap="round" stroke-linejoin="round"/>
</svg>
