<svg width="14" height="14" viewBox="0 0 14 14" fill="none" xmlns="http://www.w3.org/2000/svg">
<path fill-rule="evenodd" clip-rule="evenodd" d="M4.28447 11.6455C4.00346 11.7935 3.66351 11.7674 3.40788 11.5783C3.15226 11.3893 3.02543 11.07 3.08085 10.7552L3.52937 8.16203L1.64105 6.33669C1.41023 6.11466 1.32564 5.77903 1.42331 5.47276C1.52097 5.16649 1.78368 4.94355 2.09954 4.8989L4.72135 4.52085L5.90502 2.13907C6.04536 1.85343 6.33409 1.67271 6.65014 1.67271C6.96619 1.67271 7.25493 1.85343 7.39527 2.13907L8.57894 4.52085L11.2007 4.8989C11.5166 4.94355 11.7793 5.16649 11.877 5.47276C11.9746 5.77903 11.8901 6.11466 11.6592 6.33669L9.77092 8.16203L10.2194 10.7558C10.2749 11.0706 10.148 11.3898 9.89241 11.5789C9.63678 11.768 9.29682 11.794 9.01581 11.6461L6.65014 10.413L4.28447 11.6455Z" fill="#FF8E38" stroke="#FF8E38" stroke-width="1.5" stroke-linecap="round" stroke-linejoin="round"/>
</svg>
