<svg width="14" height="14" viewBox="0 0 14 14" fill="none" xmlns="http://www.w3.org/2000/svg">
<path fill-rule="evenodd" clip-rule="evenodd" d="M4.7716 11.6455C4.49059 11.7935 4.15063 11.7674 3.895 11.5783C3.63938 11.3893 3.51255 11.07 3.56797 10.7552L4.01649 8.16203L2.12817 6.33669C1.89735 6.11466 1.81276 5.77903 1.91043 5.47276C2.00809 5.16649 2.27081 4.94355 2.58666 4.8989L5.20847 4.52085L6.39214 2.13907C6.53248 1.85343 6.82121 1.67271 7.13727 1.67271C7.45332 1.67271 7.74205 1.85343 7.88239 2.13907L9.06606 4.52085L11.6879 4.8989C12.0037 4.94355 12.2664 5.16649 12.3641 5.47276C12.4618 5.77903 12.3772 6.11466 12.1464 6.33669L10.258 8.16203L10.7066 10.7558C10.762 11.0706 10.6352 11.3898 10.3795 11.5789C10.1239 11.768 9.78394 11.794 9.50293 11.6461L7.13727 10.413L4.7716 11.6455Z" stroke="#EEF0F3" stroke-width="1.5" stroke-linecap="round" stroke-linejoin="round"/>
</svg>
