<svg width="24" height="25" viewBox="0 0 24 25" fill="none" xmlns="http://www.w3.org/2000/svg">
<path d="M18.7046 18.796C19.3236 19.415 19.3236 20.418 18.7046 21.036C18.0856 21.655 17.0826 21.655 16.4646 21.036C15.8456 20.417 15.8456 19.414 16.4646 18.796C17.0836 18.177 18.0866 18.177 18.7046 18.796" stroke="#242328" stroke-width="1.5" stroke-linecap="round" stroke-linejoin="round"/>
<path d="M7.70461 18.796C8.32361 19.415 8.32361 20.418 7.70461 21.036C7.08561 21.655 6.08261 21.655 5.46461 21.036C4.84661 20.417 4.84561 19.414 5.46461 18.796C6.08361 18.178 7.08561 18.177 7.70461 18.796" stroke="#242328" stroke-width="1.5" stroke-linecap="round" stroke-linejoin="round"/>
<path d="M10.0006 4.5H14.0006C14.5526 4.5 15.0006 4.948 15.0006 5.5V15.5H2.00061" stroke="#242328" stroke-width="1.5" stroke-linecap="round" stroke-linejoin="round"/>
<path d="M5.00061 19.916H3.00061C2.44861 19.916 2.00061 19.468 2.00061 18.916V13.5" stroke="#242328" stroke-width="1.5" stroke-linecap="round" stroke-linejoin="round"/>
<path d="M15.0006 7.5H19.3236C19.7326 7.5 20.1006 7.749 20.2516 8.129L21.8576 12.143C21.9516 12.379 22.0006 12.631 22.0006 12.885V18.833C22.0006 19.385 21.5526 19.833 21.0006 19.833H19.1696" stroke="#242328" stroke-width="1.5" stroke-linecap="round" stroke-linejoin="round"/>
<path d="M16.0006 19.92H8.17062" stroke="#242328" stroke-width="1.5" stroke-linecap="round" stroke-linejoin="round"/>
<path d="M22.0006 14.5H18.0006V10.5H21.2006" stroke="#242328" stroke-width="1.5" stroke-linecap="round" stroke-linejoin="round"/>
<path d="M2.00061 4.5H7.00061" stroke="#FF8E38" stroke-width="1.5" stroke-linecap="round" stroke-linejoin="round"/>
<path d="M2.00061 7.5H5.00061" stroke="#FF8E38" stroke-width="1.5" stroke-linecap="round" stroke-linejoin="round"/>
<path d="M3.00061 10.5H2.00061" stroke="#FF8E38" stroke-width="1.5" stroke-linecap="round" stroke-linejoin="round"/>
</svg>
